<?xml version="1.0" encoding="utf-8"?>
<!-- Generator: Adobe Illustrator 25.1.0, SVG Export Plug-In . SVG Version: 6.00 Build 0)  -->
<svg version="1.1" id="Layer_1" xmlns="http://www.w3.org/2000/svg" xmlns:xlink="http://www.w3.org/1999/xlink" x="0px" y="0px"
	 viewBox="0 0 100 100" style="enable-background:new 0 0 100 100;" xml:space="preserve">
<style type="text/css">
	.st0{opacity:0.4;}
	.st1{fill:#E6E6E6;}
	.st2{fill:#00D4AB;}
	.st3{fill:#FFD500;}
	.st4{fill:#001E3F;}
	.st5{fill:#FF3E57;}
	.st6{fill:#FFFFFF;}
</style>
<g>
	<g id="Layer_1_1_">
		<g class="st0">
			<path class="st1" d="M30.1,66.5C30.1,66.6,30.1,66.6,30.1,66.5c-0.2,0.3-0.5,0.3-0.7,0.1l0,0c-3.4-2.7-8.5-10-3.8-27.4
				c2.8-10.4-0.3-15.8-3.8-17.2c-2.5-1-5.3-0.1-6.8,2.1c-1.4,2-1,3.4-0.5,4.2c0.8,1.2,2.2,1.9,3.7,1.8c0.9,0,1.8-0.5,2.2-1.3
				c0.1-0.2,0.4-0.3,0.6-0.2c0.2,0.1,0.4,0.3,0.3,0.6l0,0c-0.5,1.1-1.7,1.8-3,1.8c-1.9,0.1-3.6-0.8-4.6-2.3
				c-0.9-1.5-0.7-3.3,0.5-5.1c1.8-2.6,5.1-3.6,8-2.4c4.1,1.6,7.4,7.2,4.4,18.2c-4.6,17,0.2,23.9,3.5,26.5
				C30.2,66.1,30.2,66.4,30.1,66.5z"/>
			<path class="st1" d="M54.2,56.7c-0.8,1.4-2,2.5-3.5,3.3c-3.4,1.9-7.9,0.9-9.9-2.2l0,0c-1.5-2.3-0.7-5.3,1.8-6.7
				c1.9-1,4.3-0.5,5.5,1.2l0,0c0.9,1.3,0.4,3-1,3.8l0,0c-1.1,0.6-2.5,0.3-3.2-0.7l0,0c-0.1-0.2-0.1-0.5,0.1-0.6l0,0
				c0.2-0.1,0.5-0.1,0.6,0.1l0,0c0.4,0.6,1.2,0.8,1.9,0.4l0,0c1-0.5,1.3-1.7,0.7-2.6c-0.9-1.3-2.7-1.7-4.2-0.9
				c-2.1,1.1-2.7,3.6-1.5,5.5c1.8,2.7,5.6,3.6,8.6,1.9c4.2-2.3,5.5-7.2,3-11.1C49.5,42.7,41.9,41,36,44.2
				c-8.3,4.5-10.9,14.3-5.9,21.8l0,0c0.1,0.2,0.1,0.5-0.2,0.6c-0.2,0.1-0.5,0.1-0.7-0.2l0,0c-5.3-7.9-2.5-18.2,6.3-23l0,0
				c6.3-3.5,14.6-1.6,18.4,4.1l0,0C55.8,50.5,55.9,53.9,54.2,56.7z"/>
			<path class="st1" d="M48.5,35.8c0,0.1-0.1,0.1-0.2,0.1L47.2,36c-7.5,1-14.4,5-18.3,10.6c-1,1.4-1.8,3-2.3,4.6s-0.7,3.3-0.6,5
				c0.1,3.4,1.3,6.7,3.6,9.4c0.1,0.1,0.1,0.2,0,0.3s-0.3,0.1-0.3,0l0,0c-2.3-2.8-3.6-6.2-3.7-9.7c-0.1-1.7,0.2-3.5,0.6-5.2
				c0.5-1.7,1.3-3.3,2.3-4.7c4-5.8,11-9.8,18.7-10.9l1.1-0.1c0.1,0,0.2,0.1,0.3,0.2C48.5,35.7,48.5,35.7,48.5,35.8z"/>
			<path class="st1" d="M49.1,35.5c0,0.4-0.3,0.7-0.7,0.8c-0.4,0-0.8-0.2-0.8-0.6c-0.1-0.4,0.2-0.7,0.7-0.8l0,0
				C48.7,34.9,49,35.1,49.1,35.5L49.1,35.5z"/>
			<path class="st1" d="M65.2,39.2c-0.1,0.2-0.3,0.5-0.5,0.7c-1.8,2.3-5.3,2.9-7.9,1.3l-0.1-0.1c-1.9-1.3-3.1-3.8-1.1-6.3
				c1-1.4,3-1.8,4.6-0.9c1.1,0.6,1.7,1.9,0.7,3.5c-0.1,0.2-0.4,0.3-0.6,0.2l0,0c-0.2-0.1-0.3-0.4-0.2-0.6l0,0
				c0.7-1.1,0.3-1.9-0.4-2.3c-1.1-0.6-2.6-0.3-3.2,0.7c-1.6,2.1-0.7,4,0.9,5.1c2,1.4,5,1.1,6.6-0.8c0.1-0.1,0.1-0.1,0.2-0.2
				c1.9-2.3,1.5-5.8-0.9-8.2c-1.6-1.6-7.9-6.4-21.7,0.7c-18.4,9.5-15.8,25.8-13.4,30.8c0.5,1,1.1,1.9,1.8,2.8
				c0.2,0.2,0.1,0.5-0.1,0.6s-0.5,0.1-0.7-0.1l0,0c-0.8-0.9-1.4-1.9-2-3C24.7,57.9,22,41,41,31.2c14.5-7.5,21.2-2.3,22.9-0.5
				C66.2,33.1,66.8,36.6,65.2,39.2z"/>
			<path class="st1" d="M52,18c-1.4,2.3-3.8,4.4-7.3,6.5c-7.4,4.1-12.8,9-15.9,14.4c-1.8,3-2.9,6.4-3.2,9.8c-0.3,3.4,0,6.9,0.8,10.3
				c0,0.1-0.1,0.2-0.2,0.3c-0.1,0-0.3-0.1-0.3-0.2c-0.9-3.4-1.2-6.9-0.9-10.4c0.4-3.5,1.5-6.9,3.3-10c3.2-5.5,8.6-10.4,16.1-14.6
				c3.9-2.4,6.4-4.7,7.7-7.4c0.8-1.6,1-3.3,0.6-5c-0.3-1.1-0.8-2.1-1.6-3c-1.5,0.8-3.2,1.2-4.9,1c-0.8-0.1-2-0.3-2.7-1.1
				c-0.4-0.4-0.4-1-0.1-1.5c0.3-0.4,0.6-0.8,1.1-1c2.3-1,4.7,0.4,5.6,1.1c0.4,0.3,0.8,0.6,1.1,1L51.5,8c1.4-1.1,2.4-2.6,2.8-4.3
				c0-0.1,0.1-0.2,0.1-0.3c0.1-0.2,0.1-0.4,0.1-0.6c0-0.1,0.1-0.2,0.3-0.2l0,0c0.1,0,0.2,0.1,0.2,0.2l0,0c0,0.2-0.1,0.4-0.1,0.7
				c0,0.1-0.1,0.2-0.1,0.3c-0.4,1.8-1.5,3.4-3,4.5c-0.1,0.1-0.2,0.1-0.3,0.2c0.8,0.9,1.4,2,1.7,3.1c0.4,1.8,0.2,3.6-0.6,5.2
				C52.4,17.3,52.2,17.7,52,18z M43.7,7.5c-0.2,0.3-0.1,0.7,0.1,1c0.6,0.7,1.6,0.9,2.4,1c1.6,0.2,3.2-0.2,4.5-0.9
				c-0.3-0.3-0.7-0.6-1-0.9c-0.9-0.6-3.1-1.9-5.1-1C44.2,6.8,43.9,7.1,43.7,7.5L43.7,7.5z"/>
			<path class="st1" d="M54.8,2.1c0.4,0,0.7,0.4,0.7,0.7c0,0.4-0.4,0.7-0.8,0.6h-0.1c-0.4-0.1-0.7-0.5-0.6-0.8
				C54.1,2.3,54.4,2.1,54.8,2.1z"/>
			<path class="st1" d="M25.4,51c0,0.1-0.1,0.1-0.2,0.1S25,51,25,50.9c0-4.5,1-8.9,3-13c1.9-4.3,4.6-8.4,7-11.7
				c1.3-1.8,2.3-3.9,2.9-6c0-0.1,0-0.3,0.1-0.4c0.1-0.4,0.1-0.8,0.1-1.2v-0.9l-0.2-0.8c-0.3-1-1-1.9-2-2.5c-1.1-0.6-2.5-0.8-3.7-0.4
				c-1,0.2-1.9,0.9-2.3,1.7c-0.6,1.1-0.7,2.2-0.1,3c0.3,0.5,0.8,0.8,1.4,0.9c0.5,0.1,1,0,1.5-0.3c0.3-0.2,0.5-0.4,0.7-0.7
				c0.1-0.1,0.2-0.1,0.3-0.1c0.1,0,0.2,0.2,0.1,0.3l0,0c-0.2,0.3-0.5,0.6-0.8,0.8c-0.5,0.3-1.2,0.5-1.9,0.3
				c-0.7-0.1-1.4-0.5-1.7-1.1c-0.9-1.3-0.3-2.8,0.1-3.4c0.5-1,1.5-1.7,2.6-2c1.4-0.4,2.9-0.2,4.1,0.5c1.1,0.6,1.9,1.6,2.2,2.8
				l0.2,0.8v0.9c0,0.4,0,0.9-0.1,1.3c0,0.1-0.1,0.3-0.1,0.4c-0.6,2.2-1.6,4.3-2.9,6.2c-2.3,3.3-5,7.4-6.9,11.7
				c-1.9,4.1-2.9,8.4-2.9,12.9C25.4,50.9,25.4,51,25.4,51z"/>
			<path class="st1" d="M33.7,18.1c0.4,0.1,0.6,0.5,0.4,0.8c0,0,0,0.1-0.1,0.1c-0.1,0.4-0.5,0.5-0.9,0.4c-0.1,0-0.1-0.1-0.2-0.1
				c-0.2-0.2-0.3-0.6-0.2-0.9C32.9,18.1,33.3,18,33.7,18.1z"/>
			<path class="st1" d="M43.2,20.3c-0.2,0.3-0.3,0.5-0.5,0.7c-0.8,1.1-1.7,2.2-2.7,3.3c-0.8,0.9-1.7,1.8-2.6,2.6
				c-1.1,1.1-2.3,2.3-3.3,3.4c-3.7,4.2-6.4,9.1-8,14.3c0,0.1-0.2,0.2-0.3,0.1c-0.1,0-0.2-0.2-0.2-0.3c1.6-5.2,4.4-10.1,8.1-14.4
				c1.1-1.2,2.2-2.4,3.3-3.5c0.9-0.9,1.7-1.7,2.6-2.6c1-1,1.9-2.1,2.7-3.2c0.7-1,1.4-2.3,1.6-3.7c0-0.1,0-0.2,0-0.3
				c0-0.2,0-0.4,0-0.6c0-0.1,0-0.2,0.2-0.3l0,0c0.1,0,0.3,0,0.3,0.2c0.1,0.2,0.1,0.5,0,0.7c0,0.1,0,0.2,0,0.3
				C44.2,18.3,43.8,19.4,43.2,20.3z"/>
			<path class="st1" d="M43.9,15.5c0.4-0.1,0.8,0.2,0.8,0.6s-0.2,0.7-0.6,0.8c-0.4,0-0.7-0.2-0.8-0.6C43.3,15.9,43.5,15.6,43.9,15.5
				z"/>
			<path class="st1" d="M29.6,66L29.6,66c-0.1,0.1-0.2,0.1-0.3,0.1l0,0c-2.3-1.3-4.1-3.5-5.6-6.7c-0.6-1.3-1-2.7-1.3-4.1
				c-0.2-1.2-0.3-2.4-0.2-3.6v-0.6c0-2.8-0.4-5.6-1.1-8.3c-0.8-2.7-1.8-5.5-4.2-7.2c-0.1-0.1-0.2-0.1-0.3-0.2
				c-0.2-0.1-0.4-0.2-0.5-0.3c-0.1,0-0.2-0.2-0.1-0.3l0,0c0-0.1,0.2-0.2,0.3-0.1l0,0c0.2,0.1,0.4,0.2,0.6,0.4l0.3,0.2
				c2.6,1.8,3.7,4.8,4.4,7.4c0.7,2.8,1,5.6,1.1,8.4v0.6c0,1.2,0.1,2.4,0.2,3.6c0.2,1.4,0.7,2.7,1.3,4c1.5,3,3.2,5.2,5.4,6.5
				C29.6,65.8,29.7,65.9,29.6,66L29.6,66z"/>
			<path class="st1" d="M15.3,34.7c0.2-0.3,0.6-0.5,1-0.3s0.5,0.6,0.3,0.9s-0.6,0.4-1,0.3C15.3,35.4,15.1,35,15.3,34.7z"/>
			<path class="st1" d="M30.1,66.5c-0.1,0.2-0.4,0.3-0.6,0.2c-2.4-0.8-8-5.7-9.4-11.7c-1.4-5.8-3.8-13.7-8.6-14.7
				c-1-0.2-2,0-2.8,0.5S7.4,42,7.2,42.9c-0.2,1.3,0.7,2.5,2.1,2.7c0.4,0.1,0.9,0,1.3-0.2s0.6-0.6,0.7-0.9c0.1-0.6-0.3-1.1-0.9-1.2
				c-0.3,0-0.4-0.3-0.4-0.5s0.3-0.4,0.6-0.3c1.1,0.2,1.9,1.2,1.7,2.2c-0.1,0.6-0.5,1.2-1.1,1.5c-0.6,0.4-1.3,0.5-2,0.4
				c-1.9-0.3-3.2-2-2.9-3.7c0.2-1.1,0.9-2,1.9-2.7c1-0.6,2.3-0.9,3.5-0.6c5.4,1.1,8,9.3,9.4,15.4c1.3,5.5,6.5,10.3,8.8,11.1
				C30.1,66,30.2,66.2,30.1,66.5C30.2,66.5,30.1,66.5,30.1,66.5L30.1,66.5z"/>
		</g>
		<polygon class="st2" points="25.7,21.2 26.5,21.3 27.2,22.4 26.9,23.1 23.9,23.4 		"/>
		<polygon class="st2" points="22.7,25.8 23.6,24.9 24,25.8 23.6,26.6 		"/>
		<polygon class="st2" points="23.5,27 23.3,27.9 22.6,28.4 22.3,27.3 		"/>
		<polygon class="st2" points="22.3,24.3 22.6,23.1 23.3,23.7 23.5,24.6 		"/>
		<polygon class="st2" points="22.3,19 23,18.6 24.3,19.3 24.4,20.1 22,21.7 		"/>
		<polygon class="st2" points="21.7,22.2 22.3,22.8 21,23.2 20.7,22 		"/>
		<path class="st2" d="M19.4,28.3c-1.6,0-2.8-1.1-2.8-2.6s1.3-2.6,2.8-2.6s2.8,1.1,2.8,2.6C22.2,27.2,20.9,28.3,19.4,28.3L19.4,28.3
			z"/>
		<polygon class="st2" points="20.3,29.6 19.4,29.9 18.4,29.6 19.4,28.8 		"/>
		<polygon class="st2" points="18.4,21.9 19.4,21.6 20.3,21.9 19.4,22.8 		"/>
		<polygon class="st2" points="18.6,17.9 20.1,17.9 20.6,18.6 19.4,21.1 18.2,18.6 		"/>
		<polygon class="st2" points="18,22 17.7,23.2 16.4,22.8 17.1,22.2 		"/>
		<polygon class="st2" points="16.5,27.3 16.1,28.4 15.4,27.9 15.2,27 		"/>
		<polygon class="st2" points="15.1,26.6 14.8,25.8 15.1,24.9 16,25.8 		"/>
		<polygon class="st2" points="15.2,24.6 15.4,23.7 16.1,23.1 16.5,24.3 		"/>
		<polygon class="st2" points="14.4,19.3 15.7,18.6 16.4,19 16.8,21.7 14.4,20.1 		"/>
		<polygon class="st2" points="12.3,21.3 13.1,21.2 14.9,23.4 11.9,23.1 11.5,22.4 		"/>
		<polygon class="st2" points="10.7,26.5 10.7,25.1 11.4,24.7 14.2,25.8 11.4,26.9 		"/>
		<polygon class="st2" points="13.1,30.3 12.3,30.3 11.5,29.1 11.9,28.4 14.9,28.1 		"/>
		<polygon class="st2" points="16.4,32.6 15.7,32.9 14.4,32.2 14.4,31.5 16.8,29.8 		"/>
		<polygon class="st2" points="17.1,29.4 16.4,28.7 17.7,28.4 18,29.5 		"/>
		<polygon class="st2" points="20.1,33.6 18.6,33.6 18.2,33 19.4,30.5 20.6,33 		"/>
		<polygon class="st2" points="20.7,29.5 21,28.4 22.3,28.7 21.7,29.4 		"/>
		<polygon class="st2" points="24.3,32.2 23,32.9 22.3,32.6 22,29.8 24.4,31.5 		"/>
		<polygon class="st2" points="26.5,30.3 25.7,30.3 23.9,28.1 26.9,28.4 27.2,29.1 		"/>
		<polygon class="st2" points="28,26.5 27.3,26.9 24.5,25.8 27.3,24.7 28,25.1 		"/>
		<path class="st3" d="M60.9,77.1c0-3.9-12.6-7-28.2-7s-28.2,3.1-28.2,7s12.6,7,28.2,7S60.9,81,60.9,77.1z"/>
		<path class="st4" d="M58,78.2c-0.9,0.7-2.8,1.4-5.9,2.2c-5.2,1.3-12.1,2-19.5,2s-14.3-0.7-19.5-2c-2.9-0.7-4.9-1.4-5.9-2.2
			c-1.9-1.4-0.2-2.7,5.9-4.3c5.2-1.3,12.1-2,19.5-2s14.3,0.7,19.5,2C57.1,75.2,60.2,76.6,58,78.2z"/>
		<path class="st2" d="M58,78.2c-0.9,0.7-2.8,1.4-5.9,2.2c-5.2,1.3-12.1,2-19.5,2s-14.3-0.7-19.5-2c-2.9-0.7-4.9-1.4-5.9-2.2
			c1-0.7,2.9-1.4,5.9-2.2c5.2-1.3,12.1-2,19.5-2s14.3,0.7,19.5,2C54.8,76.7,56.9,77.4,58,78.2z"/>
		<path class="st5" d="M60.9,77.1c0,14.3-12.8,22.9-28.2,22.9S4.5,91.4,4.5,77.1c4,5.9,24,7,28.2,0C36.9,84.1,56.8,83.1,60.9,77.1z"
			/>
		<path class="st4" d="M60.7,80.1c0,0.3-0.1,0.6-0.1,0.9c-2.5,2.2-7.2,3.7-12.7,3.9c-5.3,0.2-12-0.8-15.2-4.4
			c-2.9,3.3-8.8,4.5-13.8,4.5c-0.4,0-0.8,0-1.2,0c-5.6-0.2-10.4-1.7-12.9-4c-0.1-0.3-0.1-0.6-0.1-0.9c2.2,2.4,7.3,4.1,13.1,4.3
			c5.2,0.2,11.8-0.9,14.7-4.5c0.1-0.1,0.2-0.1,0.2-0.1c0.1,0,0.2,0,0.2,0.1c3,3.6,9.7,4.7,15,4.4C53.6,84.1,58.5,82.4,60.7,80.1z"/>
		<path class="st4" d="M59.4,84.9c-0.1,0.3-0.2,0.6-0.3,0.9c-2.7,1.6-6.7,2.7-11.3,2.9c-5.3,0.2-12-0.9-15.2-4.4
			c-2.9,3.3-8.8,4.5-13.8,4.5c-0.4,0-0.8,0-1.2,0c-4.7-0.2-8.8-1.3-11.5-2.9C6,85.6,5.9,85.3,5.7,85c2.6,1.8,7,3.1,11.9,3.3
			c5.2,0.2,11.8-0.9,14.7-4.5c0.1-0.1,0.1-0.1,0.2-0.1s0.2,0,0.2,0.1c3,3.6,9.7,4.7,15,4.4C52.7,87.9,56.9,86.7,59.4,84.9z"/>
		<path class="st4" d="M56.1,90.5c-0.2,0.3-0.4,0.5-0.7,0.7c-2.5,0.8-5,1.2-7.6,1.3c-5.3,0.2-12-0.8-15.2-4.4
			c-2.9,3.3-8.8,4.5-13.8,4.5c-0.4,0-0.8,0-1.2,0c-2.7-0.1-5.3-0.5-7.8-1.3c-0.2-0.3-0.5-0.5-0.7-0.8c2.7,1,5.6,1.5,8.6,1.6
			c5.2,0.2,11.8-0.9,14.7-4.5c0.1-0.1,0.2-0.1,0.2-0.1c0.1,0,0.2,0,0.2,0.1c3,3.6,9.7,4.7,15,4.4C50.7,91.9,53.5,91.4,56.1,90.5z"/>
		<path class="st3" d="M53.6,93c-0.3,0.2-0.5,0.5-0.8,0.7c-1.2,0.2-2.5,0.4-3.7,0.5c-0.9,0.1-1.8,0.1-2.6,0.1
			c-6,0-11.2-1.5-13.9-4.1c-3.4,3-10.1,4.5-17.3,3.8c-1-0.1-2-0.2-3.1-0.4c-0.3-0.2-0.5-0.4-0.8-0.7c1.3,0.3,2.6,0.5,3.9,0.6
			c5.9,0.6,13.4-0.4,17-3.9c0.1,0,0.1-0.1,0.2-0.1s0.2,0,0.2,0.1c2.9,3,9.2,4.6,16.3,4.1C50.6,93.6,52.1,93.3,53.6,93z"/>
		<path class="st3" d="M46.4,89.9c-0.3,0-0.5,0.2-0.6,0.5c0,0.3,0.2,0.5,0.5,0.5l0,0l0,0c0.3,0,0.5-0.2,0.5-0.5l0,0l0,0
			C47,90.1,46.7,89.9,46.4,89.9z M48.1,89.8L48.1,89.8c-0.3,0-0.5,0.3-0.5,0.6c0,0.2,0.2,0.4,0.5,0.4l0,0c0.3,0,0.5-0.2,0.5-0.5l0,0
			C48.6,90,48.4,89.8,48.1,89.8L48.1,89.8z M44.8,89.8L44.8,89.8c-0.3,0-0.6,0.2-0.6,0.5s0.2,0.5,0.5,0.5l0,0l0,0
			c0.3,0,0.5-0.2,0.5-0.5l0,0C45.3,90,45.1,89.8,44.8,89.8L44.8,89.8z M50.3,90.2c0-0.3-0.3-0.4-0.5-0.4h-0.1
			c-0.3,0-0.5,0.2-0.5,0.5s0.3,0.5,0.6,0.5h0.1C50.1,90.7,50.3,90.5,50.3,90.2L50.3,90.2L50.3,90.2z M43.2,89.7L43.2,89.7
			c-0.4,0-0.6,0.2-0.6,0.5c0,0.2,0.2,0.4,0.4,0.5h0.1c0.3,0,0.5-0.2,0.5-0.5S43.4,89.7,43.2,89.7z M51.9,89.9c0-0.2-0.3-0.4-0.5-0.4
			h-0.1c-0.3,0.1-0.5,0.3-0.4,0.6c0,0.2,0.3,0.4,0.5,0.4h0.1C51.8,90.4,52,90.2,51.9,89.9C52,90,52,89.9,51.9,89.9L51.9,89.9z
			 M41.5,89.4L41.5,89.4c-0.4,0-0.6,0.2-0.7,0.5c0,0.2,0.2,0.4,0.4,0.5h0.1c0.3,0,0.5-0.2,0.5-0.4v-0.1C42,89.7,41.8,89.5,41.5,89.4
			z M53.6,89.6c-0.1-0.2-0.3-0.4-0.5-0.4H53c-0.3,0.1-0.5,0.3-0.4,0.6s0.4,0.4,0.7,0.4C53.4,90.1,53.6,89.9,53.6,89.6
			C53.6,89.7,53.6,89.6,53.6,89.6L53.6,89.6z M39.9,89.1L39.9,89.1c-0.3,0-0.6,0.2-0.6,0.4c-0.1,0.3,0.1,0.5,0.4,0.6h0.1
			c0.2,0,0.5-0.1,0.5-0.4v-0.1C40.3,89.3,40.2,89.1,39.9,89.1L39.9,89.1z M55.2,89.2c-0.1-0.2-0.3-0.3-0.5-0.3c-0.1,0-0.1,0-0.2,0
			c-0.3,0.1-0.4,0.4-0.4,0.6c0.1,0.2,0.3,0.4,0.5,0.4c0.1,0,0.1,0,0.2,0l0,0c0.2-0.1,0.4-0.2,0.4-0.5C55.2,89.3,55.2,89.2,55.2,89.2
			L55.2,89.2z M38.4,88.6c-0.1,0-0.1,0-0.2,0c-0.3,0-0.5,0.2-0.6,0.5c0,0.2,0.1,0.4,0.4,0.5c0.1,0,0.1,0,0.2,0
			c0.2,0,0.4-0.1,0.5-0.3c0-0.1,0-0.1,0-0.2C38.8,88.9,38.6,88.7,38.4,88.6L38.4,88.6z M56.7,88.6c-0.1-0.2-0.3-0.3-0.5-0.3
			c-0.1,0-0.1,0-0.2,0c-0.3,0.1-0.4,0.4-0.3,0.7c0.1,0.2,0.3,0.3,0.5,0.3c0.1,0,0.1,0,0.2,0c0.2-0.1,0.3-0.3,0.3-0.5
			C56.8,88.7,56.8,88.7,56.7,88.6L56.7,88.6z M36.9,88.1c-0.1,0-0.1,0-0.2,0c-0.3,0-0.5,0.2-0.5,0.5c0,0.2,0.1,0.4,0.3,0.4
			c0.1,0,0.2,0,0.2,0c0.2,0,0.4-0.1,0.5-0.3c0-0.1,0.1-0.1,0.1-0.2C37.2,88.3,37.1,88.2,36.9,88.1L36.9,88.1z M57.7,87.6
			c-0.1,0-0.2,0-0.3,0.1c-0.3,0.1-0.4,0.4-0.2,0.7l0,0c0.1,0.1,0.1,0.2,0.3,0.2c0.2-0.3,0.4-0.6,0.5-0.9
			C57.9,87.7,57.8,87.6,57.7,87.6L57.7,87.6z M35.5,87.4c-0.3-0.1-0.6-0.1-0.8,0.2c-0.2,0.2-0.1,0.5,0.2,0.7c0.1,0,0.2,0.1,0.3,0.1
			c0.2,0,0.4-0.1,0.5-0.2c0.1-0.1,0.1-0.2,0.1-0.3C35.7,87.6,35.6,87.5,35.5,87.4L35.5,87.4z M34.2,86.5c-0.1-0.1-0.2-0.1-0.3-0.1
			c-0.3,0-0.5,0.2-0.5,0.5c0,0.1,0.1,0.3,0.2,0.4c0.1,0.1,0.2,0.1,0.3,0.1c0.2,0,0.3-0.1,0.4-0.2c0.1-0.1,0.1-0.2,0.1-0.3
			C34.4,86.8,34.3,86.6,34.2,86.5L34.2,86.5z"/>
		<path class="st3" d="M32.6,86.4c-0.3,0-0.5-0.2-0.5-0.5l0,0c0-0.1,0.1-0.3,0.2-0.3c0.2-0.2,0.6-0.2,0.8,0c0.1,0.1,0.2,0.2,0.2,0.3
			C33.2,86.1,33,86.4,32.6,86.4C32.7,86.4,32.6,86.4,32.6,86.4z"/>
		<path class="st3" d="M18.9,89.9c-0.3,0-0.5,0.2-0.5,0.5l0,0c0,0.3,0.2,0.5,0.5,0.5l0,0l0,0c0.3,0,0.6-0.2,0.6-0.4
			c0-0.3-0.2-0.5-0.5-0.5C18.9,89.9,18.9,89.9,18.9,89.9L18.9,89.9z M17.2,89.9L17.2,89.9c-0.3,0-0.6,0.3-0.6,0.5s0.2,0.4,0.5,0.5
			l0,0c0.3,0,0.5-0.2,0.5-0.5l0,0C17.7,90.1,17.5,89.9,17.2,89.9L17.2,89.9z M20.5,89.9L20.5,89.9c-0.3,0-0.5,0.2-0.5,0.5l0,0
			c0,0.3,0.3,0.5,0.5,0.5l0,0c0.3,0,0.5-0.2,0.5-0.5l0,0C21.1,90.1,20.8,89.9,20.5,89.9L20.5,89.9L20.5,89.9z M15.6,89.8L15.6,89.8
			c-0.3,0-0.6,0.2-0.6,0.4c0,0.3,0.2,0.5,0.5,0.5h0.1c0.3,0,0.6-0.2,0.6-0.5C16.1,90,15.9,89.8,15.6,89.8L15.6,89.8z M22.8,90.2
			c0-0.3-0.3-0.5-0.6-0.4l0,0c-0.3,0-0.5,0.3-0.5,0.6l0,0c0,0.2,0.3,0.4,0.5,0.4h0.1C22.6,90.7,22.8,90.5,22.8,90.2L22.8,90.2
			L22.8,90.2z M14,89.5L14,89.5c-0.4,0-0.6,0.2-0.6,0.5c0,0.2,0.2,0.4,0.4,0.5h0.1c0.3,0,0.5-0.2,0.5-0.4V90
			C14.4,89.8,14.2,89.6,14,89.5L14,89.5z M24.4,89.9c-0.1-0.2-0.3-0.4-0.5-0.4h-0.1c-0.3,0.1-0.5,0.3-0.4,0.6
			c0.1,0.2,0.3,0.4,0.5,0.4H24C24.2,90.4,24.4,90.2,24.4,89.9C24.4,90,24.4,89.9,24.4,89.9L24.4,89.9z M12.4,89.2L12.4,89.2
			c-0.3,0-0.6,0.2-0.6,0.4c-0.1,0.3,0.1,0.5,0.4,0.6l0,0h0.1c0.2,0,0.5-0.2,0.5-0.4v-0.1C12.8,89.5,12.6,89.3,12.4,89.2z M26,89.5
			c-0.1-0.2-0.3-0.4-0.5-0.4h-0.1c-0.3,0.1-0.5,0.3-0.4,0.6c0.1,0.2,0.3,0.4,0.5,0.4h0.1c0.2-0.1,0.4-0.3,0.4-0.5
			C26,89.6,26,89.6,26,89.5z M10.8,88.8c-0.1,0-0.1,0-0.2,0c-0.2,0-0.4,0.1-0.5,0.3c-0.1,0.3,0.1,0.5,0.3,0.6l0,0c0.1,0,0.1,0,0.2,0
			c0.2,0,0.4-0.1,0.5-0.3c0,0,0-0.1,0-0.2C11.2,89.1,11,88.9,10.8,88.8L10.8,88.8z M27.6,89c-0.1-0.2-0.3-0.3-0.5-0.3
			c-0.1,0-0.1,0-0.2,0c-0.3,0.1-0.4,0.4-0.3,0.6l0,0c0.1,0.2,0.3,0.3,0.5,0.3c0.1,0,0.1,0,0.2,0c0.2-0.1,0.4-0.3,0.4-0.5
			C27.6,89.1,27.6,89.1,27.6,89L27.6,89z M9.3,88.3c-0.1,0-0.1,0-0.2,0c-0.2,0-0.4,0.1-0.5,0.3s0,0.5,0.3,0.6l0,0c0.1,0,0.1,0,0.2,0
			c0.2,0,0.4-0.1,0.5-0.3c0-0.1,0-0.1,0-0.2C9.6,88.6,9.5,88.4,9.3,88.3z M29.1,88.4c-0.1-0.2-0.3-0.3-0.5-0.3c-0.1,0-0.2,0-0.2,0.1
			c-0.3,0.1-0.4,0.4-0.3,0.7l0,0c0.1,0.2,0.3,0.3,0.5,0.3c0.1,0,0.2,0,0.2-0.1c0.2-0.1,0.3-0.2,0.3-0.4
			C29.2,88.5,29.1,88.4,29.1,88.4L29.1,88.4z M7.8,87.7c-0.1,0-0.2-0.1-0.3-0.1c-0.1,0-0.3,0.1-0.4,0.1c0.2,0.3,0.3,0.6,0.5,0.9
			c0.1,0,0.3-0.1,0.3-0.2c0-0.1,0.1-0.2,0.1-0.2C8.1,87.9,8,87.8,7.8,87.7z M30.5,87.6c-0.1-0.1-0.3-0.2-0.5-0.2
			c-0.1,0-0.2,0-0.3,0.1c-0.3,0.1-0.3,0.5-0.2,0.7c0.1,0.1,0.3,0.2,0.5,0.2c0.1,0,0.2,0,0.3-0.1c0.2-0.1,0.3-0.3,0.3-0.4
			C30.6,87.7,30.6,87.6,30.5,87.6L30.5,87.6z M31.9,86.6c-0.1-0.1-0.3-0.2-0.4-0.2s-0.3,0-0.4,0.1c-0.2,0.2-0.3,0.5-0.1,0.7
			c0.1,0.1,0.3,0.2,0.4,0.2s0.3,0,0.4-0.1s0.2-0.2,0.2-0.4C32,86.8,31.9,86.7,31.9,86.6L31.9,86.6z"/>
		<path class="st3" d="M60,81.7L60,81.7L60,81.7c-0.1,0.1-0.1,0.3-0.2,0.5c-0.1,0.3,0,0.5,0.1,0.7c0,0,0.1,0,0.1,0.1
			c0-0.1,0.1-0.2,0.1-0.3c-0.1-0.2-0.1-0.3,0-0.5c0-0.1,0.1-0.3,0.1-0.3h0.2c0-0.1,0-0.2,0.1-0.3C60.3,81.6,60.1,81.7,60,81.7z"/>
		<path class="st3" d="M59.8,83.1c-0.2-0.2-0.5-0.3-0.8-0.2c-0.2,0-0.5,0-0.5,0h-0.1V83c-0.1,0.1-0.2,0.3-0.2,0.4
			c-0.1,0.2-0.1,0.5,0,0.7c0.2,0.2,0.5,0.3,0.8,0.3l0,0c0.2,0,0.3,0,0.5,0h0.1l0,0l0.1-0.1c0.1-0.1,0.1-0.2,0.1-0.3
			c0.1-0.1,0.1-0.3,0.1-0.4l0,0C59.9,83.3,59.9,83.2,59.8,83.1z M59.6,83.8c0,0.1-0.1,0.2-0.2,0.3c-0.1,0-0.3,0-0.4,0l0,0
			c-0.2,0-0.4,0-0.5-0.2s0-0.4,0.1-0.5c0-0.1,0.1-0.2,0.2-0.3c0.1,0,0.2,0,0.4,0c0.2,0,0.4,0,0.6,0.1C59.7,83.4,59.7,83.6,59.6,83.8
			z"/>
		<path class="st3" d="M58,84.2c-0.2-0.2-0.4-0.3-0.7-0.4c-0.2,0-0.3,0-0.5,0h-0.1l0,0c0,0-0.1,0.2-0.3,0.4
			c-0.2,0.2-0.2,0.5-0.2,0.7c0.1,0.2,0.4,0.4,0.7,0.4c0.1,0,0.3,0,0.4,0h0.2l0,0c0.1-0.1,0.2-0.3,0.3-0.4
			C58.1,84.7,58.1,84.4,58,84.2z M57.7,84.8c-0.1,0.1-0.1,0.2-0.2,0.3c-0.1,0-0.3,0-0.4,0c-0.3-0.1-0.5-0.1-0.5-0.3
			c-0.1-0.1,0-0.3,0.1-0.5c0.1-0.1,0.2-0.2,0.2-0.3c0.1,0,0.2,0,0.4,0c0.2,0,0.4,0.1,0.5,0.2C57.8,84.5,57.8,84.7,57.7,84.8z"/>
		<path class="st3" d="M56,85c-0.2-0.4-1.1-0.5-1.2-0.5s-0.3,0.2-0.4,0.4c-0.2,0.2-0.3,0.5-0.2,0.7c0.1,0.3,0.4,0.4,0.7,0.5
			c0.2,0.1,0.3,0.1,0.5,0.1h0.1l0,0C55.6,86,56.2,85.5,56,85z M55.3,85.9c-0.1,0-0.3,0-0.4-0.1c-0.3-0.1-0.4-0.2-0.5-0.3
			c0-0.2,0.1-0.4,0.2-0.5s0.2-0.2,0.3-0.3c0.3,0,0.8,0.1,0.9,0.4C55.9,85.3,55.5,85.7,55.3,85.9L55.3,85.9z"/>
		<path class="st3" d="M54,85.6c-0.1-0.5-1-0.6-1.1-0.6h-0.1l0,0c-0.1,0.1-0.8,0.5-0.7,1c0.1,0.5,1,0.7,1.1,0.7h0.1h0.1
			C53.4,86.6,54.1,86.1,54,85.6z M53.2,86.4c-0.3-0.1-0.8-0.2-0.8-0.5s0.3-0.6,0.5-0.7c0.2,0,0.8,0.2,0.8,0.4
			C53.8,85.9,53.4,86.3,53.2,86.4L53.2,86.4z"/>
		<path class="st3" d="M51.9,86.1c-0.1-0.5-1-0.7-1.1-0.7h-0.1l0,0c-0.1,0.1-0.8,0.5-0.8,1c0.1,0.5,0.9,0.7,1.1,0.7h0.1h0.1
			C51.2,87,52,86.5,51.9,86.1z M51,86.8c-0.2-0.1-0.8-0.3-0.8-0.5s0.4-0.6,0.6-0.7c0.2,0.1,0.7,0.3,0.8,0.5
			C51.7,86.4,51.2,86.7,51,86.8z"/>
		<path class="st3" d="M48.7,85.6L48.7,85.6c-0.3,0.1-0.5,0.2-0.7,0.4c-0.2,0.1-0.3,0.3-0.3,0.5c0,0.5,0.9,0.8,1,0.8h0.1h0.1
			c0.1,0,0.9-0.5,0.9-0.9C49.7,85.9,48.8,85.6,48.7,85.6z M48.8,87c-0.2-0.1-0.7-0.3-0.8-0.6c0-0.2,0.4-0.5,0.7-0.7
			c0.2,0.1,0.7,0.3,0.8,0.6S49,86.9,48.8,87z"/>
		<path class="st3" d="M46.6,85.6L46.6,85.6L46.6,85.6c-0.1,0-0.3,0.1-0.5,0.2c-0.3,0.1-0.4,0.4-0.5,0.6c0,0.3,0.2,0.5,0.5,0.6
			c0.1,0.1,0.3,0.2,0.5,0.2h0.1h0.1c0.1,0,0.9-0.4,0.9-0.9C47.6,86,46.7,85.7,46.6,85.6z M46.6,87.1c-0.1-0.1-0.2-0.1-0.4-0.2
			c-0.2-0.2-0.4-0.3-0.4-0.4c0-0.1,0.1-0.3,0.4-0.4c0.1-0.1,0.2-0.1,0.3-0.2c0.2,0.1,0.7,0.3,0.7,0.6S46.8,87,46.6,87.1z"/>
		<path class="st3" d="M44.5,85.6L44.5,85.6L44.5,85.6c-0.3,0.1-0.4,0.1-0.6,0.2c-0.3,0.1-0.5,0.3-0.5,0.6s0.2,0.5,0.4,0.7
			c0.1,0.1,0.3,0.2,0.4,0.3h0.1h0.1c0.1,0,1-0.3,1-0.8S44.6,85.6,44.5,85.6z M44.3,87.1C44.2,87,44.1,87,44,86.9
			c-0.2-0.2-0.3-0.3-0.3-0.5c0-0.1,0.2-0.3,0.4-0.4l0.4-0.2c0.2,0.1,0.7,0.4,0.7,0.6C45.1,86.7,44.6,87,44.3,87.1z"/>
		<path class="st3" d="M42.4,85.4L42.4,85.4L42.4,85.4c-0.3,0-0.4,0.1-0.6,0.2c-0.3,0.2-0.5,0.3-0.6,0.5c0,0.3,0.1,0.5,0.4,0.7
			c0.1,0.1,0.3,0.2,0.4,0.3l0,0h0.1c0.1,0,1-0.3,1.1-0.7S42.5,85.4,42.4,85.4z M42.1,86.8c-0.1-0.1-0.2-0.1-0.3-0.2
			c-0.2-0.2-0.3-0.4-0.3-0.5s0.2-0.3,0.4-0.4c0.1-0.1,0.3-0.1,0.4-0.1c0.2,0.1,0.6,0.4,0.6,0.7C42.9,86.6,42.4,86.8,42.1,86.8
			L42.1,86.8z"/>
		<path class="st3" d="M40.4,85L40.4,85L40.4,85c-0.3,0-0.4,0.1-0.6,0.1c-0.3,0.1-0.5,0.2-0.6,0.5c0,0.3,0.1,0.5,0.3,0.7
			c0.1,0.1,0.2,0.2,0.4,0.3l0,0H40c0.2,0,1-0.2,1.1-0.7C41.2,85.6,40.5,85.1,40.4,85z M39.9,86.5c-0.1-0.1-0.2-0.2-0.3-0.3
			c-0.2-0.2-0.3-0.4-0.2-0.5c0.1-0.2,0.3-0.3,0.5-0.3c0.1,0,0.2-0.1,0.4-0.1c0.2,0.1,0.6,0.5,0.5,0.7S40.3,86.4,39.9,86.5z"/>
		<path class="st3" d="M38.7,84.9c0,0-0.3-0.4-0.4-0.4c-0.2,0-0.3,0-0.5,0.1c-0.3,0-0.5,0.2-0.7,0.4c-0.1,0.3,0,0.6,0.2,0.8
			c0.1,0.1,0.2,0.3,0.3,0.4l0,0h0.1c0.1,0,1.1-0.1,1.2-0.5C39,85.3,38.9,85.1,38.7,84.9z M38.7,85.5c-0.1,0.2-0.6,0.3-0.9,0.4
			c-0.1-0.1-0.2-0.2-0.3-0.3c-0.2-0.2-0.2-0.4-0.2-0.5c0.1-0.1,0.2-0.2,0.5-0.3c0.2,0,0.3-0.1,0.4-0.1
			C38.4,84.9,38.8,85.3,38.7,85.5z"/>
		<path class="st3" d="M36.8,84.1c-0.1-0.1-0.2-0.3-0.3-0.4l0,0h-0.1c-0.2,0-0.3,0-0.5,0c-0.3,0-0.6,0.1-0.8,0.3
			c-0.1,0.2-0.1,0.5,0.1,0.8s0.3,0.5,0.4,0.5h0.2c0.1,0,0.2,0,0.3,0c0.3,0,0.6-0.1,0.7-0.4C37,84.6,37,84.3,36.8,84.1z M36.7,84.8
			c-0.1,0.1-0.2,0.2-0.5,0.2c-0.1,0-0.3,0-0.4,0c-0.1-0.1-0.2-0.2-0.2-0.3c-0.1-0.2-0.2-0.4-0.1-0.5s0.3-0.2,0.6-0.2
			c0.2,0,0.3,0,0.4,0c0.1,0.1,0.1,0.2,0.2,0.3C36.7,84.4,36.7,84.6,36.7,84.8z"/>
		<path class="st3" d="M35,83.2c0-0.1-0.1-0.3-0.2-0.4v-0.1h-0.1c-0.2,0-0.3-0.1-0.5-0.1c-0.1,0-0.1,0-0.2,0c-0.2,0-0.4,0-0.6,0.2
			s-0.2,0.5-0.1,0.8c0.1,0.1,0.1,0.3,0.2,0.4l0,0h0.1c0.2,0.1,0.4,0.1,0.5,0.1l0,0c0.3,0,0.6-0.1,0.7-0.3
			C35.1,83.7,35.1,83.4,35,83.2z M34.8,83.8c-0.1,0.1-0.3,0.2-0.5,0.2l0,0c-0.1,0-0.3,0-0.4-0.1s-0.1-0.2-0.2-0.4s-0.1-0.4,0-0.5
			s0.3-0.1,0.4-0.1h0.2c0.1,0,0.3,0,0.4,0c0,0.1,0.1,0.2,0.1,0.3C34.8,83.4,34.8,83.6,34.8,83.8L34.8,83.8z"/>
		<path class="st3" d="M31.8,82.8c-0.2-0.1-0.4-0.2-0.6-0.2H31c-0.2,0-0.3,0-0.5,0.1h-0.1v0.1c-0.1,0.1-0.1,0.3-0.2,0.4
			c-0.1,0.2-0.1,0.5,0,0.7c0.2,0.2,0.5,0.3,0.8,0.3h0.1c0.2,0,0.4,0,0.5-0.1h0.1l0.1-0.1c0.1-0.1,0.1-0.3,0.2-0.5
			C32,83.3,32,83,31.8,82.8z M31.6,83.5c0,0.1-0.1,0.2-0.2,0.4c-0.1,0-0.3,0.1-0.4,0.1l0,0c-0.3,0-0.5-0.1-0.5-0.2
			c-0.1-0.1-0.1-0.3,0-0.5c0-0.1,0.1-0.2,0.1-0.3c0.1,0,0.2,0,0.4,0h0.2c0.1,0,0.3,0,0.4,0.1C31.7,83.2,31.7,83.4,31.6,83.5z"/>
		<path class="st3" d="M30.1,84.1c-0.2-0.2-0.5-0.3-0.8-0.3c-0.2,0-0.3,0-0.5,0h-0.1L28.6,84c-0.1,0.1-0.1,0.2-0.2,0.3
			c-0.2,0.2-0.2,0.5-0.1,0.8c0.2,0.2,0.4,0.4,0.7,0.4c0.1,0,0.2,0,0.4,0l0,0h0.2l0,0c0.1-0.1,0.2-0.3,0.3-0.4
			C30.2,84.6,30.2,84.3,30.1,84.1z M29.8,84.7c-0.1,0.1-0.1,0.2-0.2,0.3h-0.1c-0.1,0-0.2,0-0.3,0c-0.3,0-0.5-0.1-0.5-0.2
			c0-0.2,0-0.4,0.1-0.5s0.1-0.2,0.2-0.2V84c0.1,0,0.2,0,0.4,0c0.2,0,0.4,0.1,0.6,0.2C29.9,84.3,29.9,84.5,29.8,84.7L29.8,84.7z"/>
		<path class="st3" d="M28.2,85c-0.1-0.2-0.4-0.4-0.7-0.4c-0.2-0.1-0.5-0.1-0.5-0.1s-0.1,0-0.4,0.3c-0.2,0.2-0.3,0.5-0.3,0.8
			c0.2,0.5,1.1,0.5,1.2,0.5h0.1l0,0c0.1-0.1,0.2-0.2,0.3-0.4C28.2,85.5,28.2,85.3,28.2,85z M27.7,85.6c-0.1,0.1-0.2,0.2-0.3,0.3
			c-0.3,0-0.8-0.1-0.9-0.4c-0.1-0.2,0.3-0.6,0.4-0.8c0.1,0,0.3,0,0.4,0.1c0.3,0.1,0.5,0.2,0.5,0.3C28,85.2,27.9,85.4,27.7,85.6z"/>
		<path class="st3" d="M26.1,85.7c-0.1-0.2-0.3-0.4-0.6-0.5c-0.2-0.1-0.3-0.1-0.5-0.1h-0.1l0,0c-0.1,0.1-0.8,0.6-0.7,1
			s1,0.6,1.1,0.7h0.1l0,0c0.1-0.1,0.3-0.2,0.4-0.3C26.1,86.2,26.2,85.9,26.1,85.7z M25.6,86.2c-0.1,0.1-0.2,0.2-0.3,0.3
			c-0.3-0.1-0.8-0.2-0.9-0.4c0-0.2,0.3-0.6,0.5-0.7c0.1,0,0.3,0.1,0.4,0.1c0.3,0.1,0.4,0.2,0.5,0.3S25.8,86,25.6,86.2L25.6,86.2z"/>
		<path class="st3" d="M24,86.1c0-0.2-0.2-0.4-0.6-0.5c-0.2-0.1-0.3-0.1-0.5-0.2l0,0c-0.2,0.1-0.4,0.3-0.6,0.4
			c-0.2,0.1-0.3,0.4-0.3,0.6c0.1,0.5,1,0.7,1.1,0.7h0.1l0,0c0.2-0.1,0.3-0.2,0.4-0.3C23.9,86.6,24,86.4,24,86.1z M23.5,86.7
			c-0.1,0.1-0.2,0.2-0.3,0.2c-0.3-0.1-0.8-0.3-0.8-0.5s0.4-0.6,0.6-0.7c0.1,0,0.2,0.1,0.4,0.1c0.3,0.1,0.4,0.2,0.4,0.4
			C23.7,86.3,23.7,86.5,23.5,86.7L23.5,86.7z"/>
		<path class="st3" d="M21.3,85.8c-0.1-0.1-0.3-0.1-0.5-0.2h-0.1h-0.1c-0.1,0-0.9,0.4-0.9,0.9s0.9,0.8,1,0.8h0.1h0.1
			c0.2-0.1,0.3-0.2,0.4-0.3c0.3-0.1,0.4-0.4,0.4-0.7C21.8,86.2,21.6,86,21.3,85.8z M21.3,86.9C21.2,87,21.1,87,21,87.1
			c-0.2-0.1-0.7-0.3-0.8-0.6s0.4-0.5,0.7-0.7c0.1,0,0.2,0.1,0.4,0.2c0.3,0.1,0.4,0.3,0.4,0.4C21.6,86.6,21.5,86.7,21.3,86.9z"/>
		<path class="st3" d="M19.2,85.9c-0.1-0.1-0.3-0.2-0.4-0.2h-0.1h-0.1c-0.1,0-0.9,0.4-0.9,0.9s0.8,0.9,0.9,0.9h0.1h0.1
			c0.2-0.1,0.3-0.1,0.5-0.2c0.3-0.1,0.4-0.4,0.5-0.6C19.6,86.3,19.5,86.1,19.2,85.9z M19,87c-0.1,0.1-0.2,0.1-0.4,0.2
			c-0.2-0.1-0.7-0.4-0.7-0.6c0-0.2,0.5-0.5,0.7-0.6c0.1,0.1,0.2,0.1,0.3,0.2c0.2,0.2,0.4,0.3,0.4,0.4C19.4,86.7,19.3,86.8,19,87z"/>
		<path class="st3" d="M16.6,85.6L16.6,85.6c-0.1,0-1,0.3-1.1,0.8s0.7,0.9,0.8,0.9h0.1h0.1c0.1,0,1-0.3,1-0.8S16.7,85.7,16.6,85.6z
			 M16.5,87.1c-0.2-0.1-0.7-0.4-0.7-0.7s0.5-0.5,0.8-0.6c0.2,0.1,0.7,0.4,0.7,0.7C17.2,86.8,16.7,87,16.5,87.1z"/>
		<path class="st3" d="M14.6,85.4L14.6,85.4L14.6,85.4c-0.2,0-1,0.2-1.2,0.7c-0.1,0.5,0.7,1,0.8,1l0,0h0.1c0.1,0,1-0.3,1.1-0.7
			S14.6,85.5,14.6,85.4z M14.3,86.9c-0.2-0.1-0.7-0.5-0.6-0.7s0.6-0.4,0.8-0.5c0.2,0.1,0.6,0.4,0.6,0.7S14.5,86.8,14.3,86.9z"/>
		<path class="st3" d="M12.5,85L12.5,85L12.5,85c-0.1,0-1.1,0.1-1.2,0.6c-0.2,0.5,0.6,1,0.7,1.1h0.1l0,0c0.2,0,1-0.2,1.1-0.7
			C13.3,85.6,12.6,85.1,12.5,85z M12.9,86c0,0.2-0.5,0.4-0.8,0.5c-0.2-0.2-0.6-0.5-0.5-0.8c0.1-0.2,0.6-0.4,0.8-0.4
			C12.6,85.4,13,85.8,12.9,86z"/>
		<path class="st3" d="M10.8,84.9c-0.1-0.1-0.2-0.2-0.3-0.3l0,0h-0.1c-0.1,0-1,0.1-1.2,0.5s0.5,1,0.6,1.1l0,0h0.1
			c0.2,0,0.4,0,0.5-0.1c0.3-0.1,0.5-0.2,0.7-0.5C11.1,85.3,11,85.1,10.8,84.9z M10.8,85.5c0,0.1-0.2,0.2-0.5,0.3
			c-0.1,0-0.3,0.1-0.4,0.1c-0.2-0.2-0.6-0.6-0.5-0.8s0.6-0.3,0.9-0.4c0.1,0.1,0.2,0.2,0.3,0.3C10.7,85.1,10.8,85.3,10.8,85.5
			L10.8,85.5z"/>
		<path class="st3" d="M8.8,84.2c-0.1-0.1-0.2-0.3-0.3-0.4H8.4H8.3c-0.2,0-0.3,0-0.5,0c-0.3,0-0.6,0.1-0.7,0.4C7,84.5,7,84.7,7.2,85
			c0.1,0.1,0.2,0.3,0.3,0.4l0,0h0.1h0.1c0.1,0,0.3,0,0.4,0c0.3,0,0.6-0.2,0.7-0.4C9.1,84.7,9,84.4,8.8,84.2z M8.8,84.8
			c-0.1,0.1-0.2,0.2-0.5,0.3c-0.1,0-0.3,0-0.4,0c-0.1-0.1-0.2-0.2-0.2-0.3c-0.1-0.1-0.2-0.3-0.1-0.5c0.1-0.1,0.3-0.2,0.5-0.2
			c0.1,0,0.2,0,0.4,0c0.1,0.1,0.2,0.2,0.2,0.3S8.8,84.7,8.8,84.8z"/>
		<path class="st3" d="M7,83.3c-0.1-0.1-0.1-0.3-0.2-0.4v-0.1H6.7c0,0-0.2,0-0.5,0S5.6,82.9,5.4,83c-0.1,0.1-0.1,0.2-0.1,0.4l0,0
			c0,0.1,0,0.3,0.1,0.4c0,0.1,0.1,0.2,0.1,0.3l0,0c0,0.1,0.1,0.1,0.1,0.1l0,0h0.1c0.2,0,0.3,0,0.5,0l0,0c0.3,0,0.6-0.1,0.8-0.3
			C7.1,83.8,7.1,83.6,7,83.3z M6.8,84c-0.1,0.1-0.4,0.2-0.6,0.2v0.1v-0.1c-0.1,0-0.3,0-0.4,0c-0.1-0.1-0.1-0.2-0.2-0.3
			c-0.1-0.2-0.1-0.4,0-0.5c0.2-0.1,0.4-0.2,0.6-0.1c0.1,0,0.3,0,0.4,0c0.1,0.1,0.1,0.2,0.2,0.3C6.9,83.6,6.9,83.8,6.8,84z"/>
		<path class="st3" d="M5.4,82.2c0-0.2-0.1-0.4-0.1-0.4v-0.1H5.2c-0.1,0-0.3-0.1-0.4-0.1c0,0.1,0,0.2,0.1,0.3c0.1,0,0.1,0,0.2,0
			c0,0.1,0,0.2,0.1,0.3c0,0.2,0,0.3,0,0.5c0,0.1,0.1,0.2,0.1,0.3c0,0,0.1,0,0.1-0.1C5.4,82.7,5.5,82.5,5.4,82.2z"/>
		<path class="st3" d="M32.7,81.3L32.7,81.3L32.7,81.3c-0.2,0-1,0.4-1,0.9s0.8,0.9,0.9,0.9h0.1h0.1c0.1,0,0.9-0.4,0.9-0.9
			C33.6,81.7,32.8,81.4,32.7,81.3z M32.6,82.8c-0.2-0.1-0.7-0.4-0.7-0.6c0-0.2,0.5-0.5,0.7-0.6c0.2,0.1,0.7,0.4,0.7,0.6
			C33.4,82.4,32.9,82.7,32.6,82.8z"/>
		<path class="st3" d="M43.5,55.8c-0.1-13.1-10.1-23-10.1-23s0.9,4.8-8.3,19c-9.7,15.1,7.5,25.4,7.5,25.4
			C32.9,75.4,43.7,69.7,43.5,55.8z"/>
		<path class="st6" d="M32.7,77.1c-0.5-1.9-9.6-9.9-4.3-17.4c6.6-9.2,6.2-12.5,6.2-12.5s6,5,5.4,13.8C39.5,69.9,32,74.1,32.7,77.1z"
			/>
		<polygon class="st1" points="9.6,55.6 10.1,55.7 10.6,56.4 10.4,56.8 8.4,57 		"/>
		<polygon class="st1" points="7.7,58.6 8.3,58 8.5,58.6 8.3,59.1 		"/>
		<polygon class="st1" points="8.2,59.3 8.1,59.9 7.6,60.3 7.4,59.5 		"/>
		<polygon class="st1" points="7.4,57.6 7.6,56.8 8.1,57.2 8.2,57.8 		"/>
		<polygon class="st1" points="7.4,54.2 7.9,54 8.7,54.4 8.8,54.9 7.2,55.9 		"/>
		<polygon class="st1" points="7,56.2 7.4,56.7 6.6,56.9 6.4,56.1 		"/>
		<path class="st1" d="M5.5,60.2c-1,0-1.8-0.7-1.8-1.6S4.5,57,5.5,57s1.8,0.7,1.8,1.6C7.3,59.4,6.5,60.2,5.5,60.2L5.5,60.2z"/>
		<polygon class="st1" points="6.1,61 5.5,61.2 4.9,61 5.5,60.5 		"/>
		<polygon class="st1" points="4.9,56.1 5.5,55.9 6.1,56.1 5.5,56.6 		"/>
		<polygon class="st1" points="5.1,53.5 6,53.5 6.3,53.9 5.5,55.5 4.8,53.9 		"/>
		<polygon class="st1" points="4.7,56.1 4.5,56.9 3.6,56.7 4.1,56.2 		"/>
		<polygon class="st1" points="3.7,59.5 3.5,60.3 3,59.9 2.9,59.3 		"/>
		<polygon class="st1" points="2.8,59.1 2.6,58.6 2.8,58 3.4,58.6 		"/>
		<polygon class="st1" points="2.9,57.8 3,57.2 3.5,56.8 3.7,57.6 		"/>
		<polygon class="st1" points="2.3,54.4 3.2,54 3.6,54.2 3.9,55.9 2.3,54.9 		"/>
		<polygon class="st1" points="1,55.7 1.5,55.6 2.7,57 0.7,56.8 0.5,56.4 		"/>
		<polygon class="st1" points="0,59 0,58.1 0.4,57.9 2.2,58.6 0.4,59.3 		"/>
		<polygon class="st1" points="1.5,61.5 1,61.5 0.5,60.7 0.7,60.3 2.7,60.1 		"/>
		<polygon class="st1" points="3.6,62.9 3.2,63.1 2.3,62.7 2.3,62.2 3.9,61.2 		"/>
		<polygon class="st1" points="4.1,60.9 3.6,60.4 4.5,60.2 4.7,61 		"/>
		<polygon class="st1" points="6,63.6 5.1,63.6 4.8,63.2 5.5,61.6 6.3,63.2 		"/>
		<polygon class="st1" points="6.4,61 6.6,60.2 7.4,60.4 7,60.9 		"/>
		<polygon class="st1" points="8.7,62.7 7.9,63.1 7.4,62.9 7.2,61.2 8.8,62.2 		"/>
		<polygon class="st1" points="10.1,61.5 9.6,61.5 8.4,60.1 10.4,60.3 10.6,60.7 		"/>
		<polygon class="st1" points="11.1,59 10.7,59.3 8.9,58.6 10.7,57.9 11.1,58.1 		"/>
		<polygon class="st3" points="58.9,32.1 59.7,32.1 60.4,33.2 60,33.9 57.2,34.2 		"/>
		<polygon class="st3" points="56,36.4 56.9,35.6 57.2,36.4 56.9,37.3 		"/>
		<polygon class="st3" points="56.8,37.6 56.7,38.4 55.9,39 55.6,37.9 		"/>
		<polygon class="st3" points="55.6,35 55.9,33.9 56.7,34.4 56.8,35.3 		"/>
		<polygon class="st3" points="55.7,29.9 56.4,29.6 57.6,30.3 57.7,31 55.3,32.5 		"/>
		<polygon class="st3" points="55.1,33 55.7,33.6 54.5,33.9 54.1,32.8 		"/>
		<path class="st3" d="M52.9,38.9c-1.5,0-2.7-1.1-2.7-2.4s1.2-2.4,2.7-2.4s2.7,1.1,2.7,2.4S54.3,38.9,52.9,38.9L52.9,38.9z"/>
		<polygon class="st3" points="53.7,40.1 52.9,40.4 52,40.1 52.9,39.3 		"/>
		<polygon class="st3" points="52,32.7 52.9,32.4 53.7,32.7 52.9,33.5 		"/>
		<polygon class="st3" points="52.1,28.9 53.6,28.9 54,29.5 52.9,31.9 51.7,29.5 		"/>
		<polygon class="st3" points="51.6,32.8 51.3,33.9 50,33.6 50.7,33 		"/>
		<polygon class="st3" points="50.1,37.9 49.8,39 49.1,38.4 48.9,37.6 		"/>
		<polygon class="st3" points="48.8,37.3 48.5,36.4 48.8,35.6 49.7,36.4 		"/>
		<polygon class="st3" points="48.9,35.3 49.1,34.4 49.8,33.9 50.1,35 		"/>
		<polygon class="st3" points="48.1,30.3 49.3,29.6 50,29.9 50.4,32.5 48,31 		"/>
		<polygon class="st3" points="46,32.1 46.8,32.1 48.6,34.2 45.7,33.9 45.3,33.2 		"/>
		<polygon class="st3" points="44.6,37.1 44.6,35.8 45.2,35.4 47.9,36.4 45.2,37.5 		"/>
		<polygon class="st3" points="46.8,40.8 46,40.8 45.3,39.6 45.7,39 48.6,38.7 		"/>
		<polygon class="st3" points="50,43 49.3,43.3 48.1,42.6 48,41.9 50.4,40.3 		"/>
		<polygon class="st3" points="50.7,39.9 50,39.3 51.3,39 51.6,40.1 		"/>
		<polygon class="st3" points="53.6,44 52.1,44 51.7,43.4 52.9,40.9 54,43.4 		"/>
		<polygon class="st3" points="54.1,40.1 54.4,39 55.7,39.2 55.1,39.9 		"/>
		<polygon class="st3" points="57.6,42.6 56.4,43.3 55.7,43 55.3,40.3 57.7,41.9 		"/>
		<polygon class="st3" points="59.7,40.8 58.9,40.8 57.2,38.7 60,39 60.4,39.6 		"/>
		<polygon class="st3" points="61.1,37.1 60.5,37.5 57.8,36.4 60.5,35.4 61.1,35.8 		"/>
		<polygon class="st3" points="39.2,1.7 39.7,1.8 40.1,2.4 39.9,2.7 38.3,2.9 		"/>
		<polygon class="st3" points="37.7,4.2 38.1,3.7 38.3,4.2 38.1,4.6 		"/>
		<polygon class="st3" points="38.1,4.8 38,5.3 37.6,5.6 37.4,5 		"/>
		<polygon class="st3" points="37.4,3.4 37.6,2.7 38,3 38.1,3.5 		"/>
		<polygon class="st3" points="37.4,0.5 37.8,0.4 38.5,0.7 38.6,1.1 37.3,2 		"/>
		<polygon class="st3" points="37.1,2.2 37.4,2.6 36.8,2.8 36.6,2.2 		"/>
		<path class="st3" d="M35.9,5.5c-0.8,0-1.5-0.6-1.5-1.3c0-0.7,0.7-1.3,1.5-1.3s1.5,0.6,1.5,1.3l0,0C37.4,4.9,36.7,5.5,35.9,5.5z"/>
		<polygon class="st3" points="36.4,6.2 35.9,6.4 35.4,6.2 35.9,5.8 		"/>
		<polygon class="st3" points="35.4,2.1 35.9,1.9 36.4,2.1 35.9,2.6 		"/>
		<polygon class="st3" points="35.5,0 36.3,0 36.5,0.3 35.9,1.7 35.3,0.3 		"/>
		<polygon class="st3" points="35.2,2.2 35,2.8 34.3,2.6 34.7,2.2 		"/>
		<polygon class="st3" points="34.4,5 34.2,5.6 33.8,5.3 33.7,4.8 		"/>
		<polygon class="st3" points="33.6,4.6 33.5,4.2 33.6,3.7 34.1,4.2 		"/>
		<polygon class="st3" points="33.7,3.5 33.8,3 34.2,2.7 34.4,3.3 		"/>
		<polygon class="st3" points="33.3,0.7 33.9,0.4 34.3,0.5 34.5,2 33.2,1.1 		"/>
		<polygon class="st3" points="32.1,1.8 32.6,1.7 33.5,2.9 31.9,2.7 31.7,2.4 		"/>
		<polygon class="st3" points="31.3,4.5 31.3,3.8 31.7,3.6 33.2,4.2 31.7,4.7 		"/>
		<polygon class="st3" points="32.6,6.6 32.1,6.5 31.7,5.9 31.9,5.6 33.5,5.4 		"/>
		<polygon class="st3" points="34.3,7.8 33.9,7.9 33.3,7.6 33.2,7.2 34.5,6.3 		"/>
		<polygon class="st3" points="34.7,6.1 34.3,5.7 35,5.5 35.2,6.2 		"/>
		<polygon class="st3" points="36.3,8.3 35.5,8.3 35.3,8 35.9,6.6 36.5,8 		"/>
		<polygon class="st3" points="36.6,6.2 36.8,5.5 37.4,5.7 37.1,6.1 		"/>
		<polygon class="st3" points="38.5,7.6 37.8,7.9 37.4,7.8 37.3,6.3 38.6,7.2 		"/>
		<polygon class="st3" points="39.7,6.5 39.2,6.6 38.3,5.4 39.9,5.6 40.1,5.9 		"/>
		<polygon class="st3" points="40.5,4.5 40.1,4.7 38.6,4.2 40.1,3.6 40.5,3.8 		"/>
		<polygon class="st1" points="71.1,11.4 72,11.5 72.8,12.8 72.4,13.6 69,13.9 		"/>
		<polygon class="st1" points="67.7,16.6 68.8,15.7 69.1,16.6 68.8,17.6 		"/>
		<polygon class="st1" points="68.6,18 68.4,19 67.6,19.6 67.2,18.3 		"/>
		<polygon class="st1" points="67.2,14.9 67.6,13.6 68.4,14.3 68.6,15.3 		"/>
		<polygon class="st1" points="67.3,8.9 68.1,8.5 69.6,9.3 69.6,10.1 66.9,12 		"/>
		<polygon class="st1" points="66.5,12.5 67.3,13.3 65.8,13.6 65.4,12.3 		"/>
		<path class="st1" d="M63.9,19.5c-1.7,0-3.2-1.3-3.2-2.9s1.4-2.9,3.2-2.9c1.7,0,3.2,1.3,3.2,2.9l0,0C67.1,18.2,65.7,19.5,63.9,19.5
			z"/>
		<polygon class="st1" points="65,21 63.9,21.3 62.9,21 63.9,20 		"/>
		<polygon class="st1" points="62.9,12.2 63.9,11.9 65,12.2 63.9,13.2 		"/>
		<polygon class="st1" points="63.1,7.7 64.8,7.7 65.3,8.4 63.9,11.3 62.6,8.4 		"/>
		<polygon class="st1" points="62.4,12.3 62,13.6 60.6,13.3 61.3,12.5 		"/>
		<polygon class="st1" points="60.7,18.3 60.3,19.6 59.4,19 59.2,18 		"/>
		<polygon class="st1" points="59.1,17.6 58.7,16.6 59.1,15.7 60.2,16.6 		"/>
		<polygon class="st1" points="59.2,15.3 59.4,14.3 60.3,13.6 60.7,14.9 		"/>
		<polygon class="st1" points="58.3,9.3 59.8,8.5 60.6,8.9 61,12 58.2,10.1 		"/>
		<polygon class="st1" points="55.9,11.5 56.8,11.4 58.8,13.9 55.4,13.6 55,12.8 		"/>
		<polygon class="st1" points="54.1,17.4 54.1,15.8 54.9,15.4 58.1,16.6 54.9,17.9 		"/>
		<polygon class="st1" points="56.8,21.8 55.9,21.7 55,20.4 55.4,19.6 58.8,19.3 		"/>
		<polygon class="st1" points="60.6,24.3 59.8,24.7 58.3,23.9 58.2,23.1 61,21.2 		"/>
		<polygon class="st1" points="61.3,20.7 60.6,19.9 62,19.6 62.4,20.9 		"/>
		<polygon class="st1" points="64.8,25.5 63.1,25.5 62.6,24.8 63.9,22 65.3,24.8 		"/>
		<polygon class="st1" points="65.4,20.9 65.8,19.6 67.3,19.9 66.5,20.7 		"/>
		<polygon class="st1" points="69.6,23.9 68.1,24.7 67.3,24.3 66.9,21.2 69.6,23.1 		"/>
		<polygon class="st1" points="72,21.7 71.1,21.8 69,19.3 72.4,19.6 72.8,20.4 		"/>
		<polygon class="st1" points="73.7,17.4 72.9,17.9 69.8,16.6 72.9,15.4 73.7,15.8 		"/>
		<path class="st2" d="M57.3,71.2c-3,0-4.1-2.7-4.1-5.1c0-2.1,1-5.1,4.1-5.1h0.8V50.1h2.4v0.6h-1v19.9h1v0.6L57.3,71.2L57.3,71.2z
			 M58.1,70.6v-8.9h-0.8c-2,0-2.7,2.4-2.7,4.4c0,1.8,0.7,4.5,2.7,4.5H58.1z"/>
		<path class="st2" d="M66.1,71.2h-3.9v-0.7h1.2v-7.4h-1v-0.7h2.4v8.1H66L66.1,71.2z M63.4,60.6v-3h1.5v3H63.4z"/>
		<path class="st2" d="M68.4,63h-1v-0.6h2.2l1.5,5.8l0.3,1.7h0.2l0.4-2.1l1.5-5.3h1.3l1.5,5.3l0.3,2.1h0.2l0.3-1.8l1.4-5.7h2.3V63
			h-1l-2.1,8.2h-1.9l-1.3-5.3l-0.2-1.7h-0.2l-0.3,1.7l-1.4,5.3h-1.9L68.4,63z"/>
		<path class="st2" d="M86.9,65c0-1.3-0.6-2.5-1.8-2.5c-1,0-1.6,0.7-1.7,1.8h-1.2c0.1-1.4,1.4-2.5,3-2.5c2,0,3.2,1.6,3.2,3.3v5.5
			h0.9v0.6h-2.2V70H87c-0.5,0.7-1.3,1.1-2.2,1.2c-1.9,0-2.9-1.2-2.9-2.7c0-2.6,2.7-3.3,5-3.3V65z M84.8,70.6c1.2,0,2.1-1.2,2.2-2.6
			v-2.3c-1.8,0.1-3.6,0.6-3.6,2.8C83.4,69.5,83.8,70.6,84.8,70.6L84.8,70.6z"/>
		<path class="st2" d="M94.4,71.2h-3.9v-0.7h1.2V50.7h-0.9v-0.6h2.3v20.4h1.2L94.4,71.2L94.4,71.2z"/>
		<path class="st2" d="M100,71.2h-3.9v-0.7h1.2v-7.4h-1v-0.7h2.4v8.1h1.2v0.7H100z M97.3,60.6v-3h1.5v3H97.3z"/>
		<path class="st3" d="M68.5,54h0.7v3h-0.7v-1.2h-1.3V57h-0.7v-3h0.7v1.3h1.3V54z"/>
		<path class="st3" d="M73.5,57l-0.3-0.7h-1.4L71.5,57h-0.8l1.4-3h0.7l1.4,3H73.5z M72.5,54.9l-0.4,0.9h0.8L72.5,54.9z"/>
		<path class="st3" d="M78.1,54.3c0.3,0.2,0.4,0.5,0.4,0.8s-0.1,0.6-0.4,0.8c-0.3,0.2-0.7,0.3-1.1,0.3h-0.4v0.9h-0.7v-3h1.2
			C77.4,54,77.8,54.1,78.1,54.3z M77.6,55.4c0.1-0.1,0.1-0.3,0.1-0.4s0-0.3-0.2-0.4s-0.4-0.1-0.5-0.1h-0.4v1h0.5
			C77.3,55.6,77.5,55.5,77.6,55.4L77.6,55.4z"/>
		<path class="st3" d="M82.5,54.3c0.3,0.2,0.4,0.5,0.4,0.8s-0.1,0.6-0.4,0.8c-0.3,0.2-0.7,0.3-1.1,0.3H81v0.9h-0.7v-3h1.2
			C81.8,54,82.2,54.1,82.5,54.3z M82,55.4c0.1-0.1,0.1-0.3,0.1-0.4s0-0.3-0.2-0.4s-0.4-0.1-0.5-0.1H81v1h0.5
			C81.6,55.6,81.8,55.5,82,55.4L82,55.4z"/>
		<path class="st3" d="M86,57h-0.7v-1.2L84.1,54h0.8l0.7,1.1l0.7-1.1h0.8l-1.2,1.8L86,57z"/>
	</g>
</g>
</svg>
